HIERARCHY
ROOT hip
{
	OFFSET 0.000000 0.000000 0.000000
	CHANNELS 6 Xposition Yposition Zposition Xrotation Zrotation Yrotation 
	JOINT abdomen
	{
		OFFSET 0.000000 3.422050 0.000000
		CHANNELS 3 Xrotation Zrotation Yrotation 
		JOINT chest
		{
			OFFSET 0.000000 8.486693 -0.6844110
			CHANNELS 3 Xrotation Zrotation Yrotation 
			JOINT neck
			{
				OFFSET 0.000000 10.26616 -0.2737640
				CHANNELS 3 Xrotation Zrotation Yrotation 
				JOINT head
				{
					OFFSET 0.000000 3.148285 0.000000
					CHANNELS 3 Xrotation Zrotation Yrotation 
					End Site
					{
						OFFSET 0.000000 3.148289 0.000000
					}
				}
			}
			JOINT lCollar
			{
				OFFSET 3.422053 6.707223 -0.8212930
				CHANNELS 3 Yrotation Zrotation Xrotation 
				JOINT lShldr
				{
					OFFSET 3.285171 0.000000 0.000000
					CHANNELS 3 Zrotation Yrotation Xrotation 
					JOINT lForeArm
					{
						OFFSET 10.12928 0.000000 0.000000
						CHANNELS 3 Yrotation Zrotation Xrotation 
						JOINT lHand
						{
							OFFSET 8.486692 0.000000 0.000000
							CHANNELS 3 Zrotation Yrotation Xrotation 
							End Site
							{
								OFFSET 4.106464 0.000000 0.000000
							}
						}
					}
				}
			}
			JOINT rCollar
			{
				OFFSET -3.558935 6.707223 -0.8212930
				CHANNELS 3 Yrotation Zrotation Xrotation 
				JOINT rShldr
				{
					OFFSET -3.148289 0.000000 0.000000
					CHANNELS 3 Zrotation Yrotation Xrotation 
					JOINT rForeArm
					{
						OFFSET -10.26616 0.000000 0.000000
						CHANNELS 3 Yrotation Zrotation Xrotation 
						JOINT rHand
						{
							OFFSET -8.349810 0.000000 0.000000
							CHANNELS 3 Zrotation Yrotation Xrotation 
							End Site
							{
								OFFSET -4.106464 0.000000 0.000000
							}
						}
					}
				}
			}
		}
	}
	JOINT lThigh
	{
		OFFSET 5.338403 -1.642589 1.368821
		CHANNELS 3 Xrotation Zrotation Yrotation 
		JOINT lShin
		{
			OFFSET -2.053232 -20.12167 0.000000
			CHANNELS 3 Xrotation Zrotation Yrotation 
			JOINT lFoot
			{
				OFFSET 0.000000 -19.30038 -1.231939
				CHANNELS 3 Xrotation Yrotation Zrotation 
				End Site
				{
					OFFSET 0.000000 -2.463878 4.653993
				}
			}
		}
	}
	JOINT rThigh
	{
		OFFSET -5.338403 -1.642589 1.368821
		CHANNELS 3 Xrotation Zrotation Yrotation 
		JOINT rShin
		{
			OFFSET 2.053232 -20.12167 0.000000
			CHANNELS 3 Xrotation Zrotation Yrotation 
			JOINT rFoot
			{
				OFFSET 0.000000 -19.30038 -1.231939
				CHANNELS 3 Xrotation Yrotation Zrotation 
				End Site
				{
					OFFSET 0.000000 -2.463878 4.653993
				}
			}
		}
	}
}
MOTION
Frames:	20
Frame Time:	0.03333333
0.000000 43.52852 0.000000 0.000000 0.000000 0.000000 0.000000 0.000000 0.000000 0.000000 0.000000 0.000000 0.000000 0.000000 0.000000 0.000000 0.000000 0.000000 0.000000 0.000000 0.000000 0.000000 0.000000 0.000000 0.000000 0.000000 0.000000 0.000000 0.000000 0.000000 0.000000 0.000000 0.000000 0.000000 0.000000 0.000000 0.000000 0.000000 0.000000 0.000000 0.000000 0.000000 0.000000 0.000000 0.000000 0.000000 0.000000 0.000000 0.000000 0.000000 0.000000 0.000000 0.000000 0.000000 0.000000 0.000000 0.000000 0.000000 0.000000 0.000000 
0.000000 43.52852 0.000000 1.000000 0.000000 0.000000 1.000000 0.000000 0.000000 1.000000 0.000000 0.000000 1.000000 0.000000 0.000000 1.000000 0.000000 0.000000 0.000000 0.000000 1.000000 -65.00000 -44.00000 0.000000 -37.00000 43.00000 0.000000 -40.00000 0.000000 -26.00000 0.000000 0.000000 1.000000 65.00000 44.00000 0.000000 37.00000 -43.00000 0.000000 40.00000 0.000000 -26.00000 0.000000 10.00000 0.000000 1.000000 0.000000 0.000000 1.000000 0.000000 0.000000 0.000000 -10.00000 0.000000 1.000000 0.000000 0.000000 1.000000 0.000000 0.000000 
0.000000 43.52852 0.000000 1.000000 0.000000 0.000000 1.000000 0.000000 0.000000 1.000000 0.000000 0.000000 1.000000 0.000000 0.000000 1.000000 0.000000 0.000000 0.000000 0.000000 1.000000 -65.00000 -44.00000 0.000000 -43.12500 41.62500 0.000000 -37.75000 0.000000 -25.85714 0.000000 0.000000 1.000000 65.00000 44.00000 0.000000 43.12500 -41.62500 0.000000 37.75000 0.000000 -25.85714 0.000000 10.00000 0.000000 1.000000 0.000000 0.000000 1.000000 0.000000 0.000000 0.000000 -10.00000 0.000000 1.000000 0.000000 0.000000 1.000000 0.000000 0.000000 
0.000000 43.52852 0.000000 1.000000 0.000000 0.000000 1.000000 0.000000 0.000000 1.000000 0.000000 0.000000 1.000000 0.000000 0.000000 1.000000 0.000000 0.000000 0.000000 0.000000 1.000000 -65.00000 -44.00000 0.000000 -49.25000 40.25000 0.000000 -35.50000 0.000000 -25.71428 0.000000 0.000000 1.000000 65.00000 44.00000 0.000000 49.25000 -40.25000 0.000000 35.50000 0.000000 -25.71428 0.000000 10.00000 0.000000 1.000000 0.000000 0.000000 1.000000 0.000000 0.000000 0.000000 -10.00000 0.000000 1.000000 0.000000 0.000000 1.000000 0.000000 0.000000 
0.000000 43.52852 0.000000 1.000000 0.000000 0.000000 1.000000 0.000000 0.000000 1.000000 0.000000 0.000000 1.000000 0.000000 0.000000 1.000000 0.000000 0.000000 0.000000 0.000000 1.000000 -65.00000 -44.00000 0.000000 -55.37500 38.87500 0.000000 -33.25000 0.000000 -25.57143 0.000000 0.000000 1.000000 65.00000 44.00000 0.000000 55.37500 -38.87500 0.000000 33.25000 0.000000 -25.57143 0.000000 10.00000 0.000000 1.000000 0.000000 0.000000 1.000000 0.000000 0.000000 0.000000 -10.00000 0.000000 1.000000 0.000000 0.000000 1.000000 0.000000 0.000000 
0.000000 43.52852 0.000000 1.000000 0.000000 0.000000 1.000000 0.000000 0.000000 1.000000 0.000000 0.000000 1.000000 0.000000 0.000000 1.000000 0.000000 0.000000 0.000000 0.000000 1.000000 -65.00000 -44.00000 0.000000 -61.50000 37.50000 0.000000 -31.00000 0.000000 -25.42857 0.000000 0.000000 1.000000 65.00000 44.00000 0.000000 61.50000 -37.50000 0.000000 31.00000 0.000000 -25.42857 0.000000 10.00000 0.000000 1.000000 0.000000 0.000000 1.000000 0.000000 0.000000 0.000000 -10.00000 0.000000 1.000000 0.000000 0.000000 1.000000 0.000000 0.000000 
0.000000 43.52852 0.000000 1.000000 0.000000 0.000000 1.000000 0.000000 0.000000 1.000000 0.000000 0.000000 1.000000 0.000000 0.000000 1.000000 0.000000 0.000000 0.000000 0.000000 1.000000 -65.00000 -44.00000 0.000000 -67.62500 36.12500 0.000000 -28.75000 0.000000 -25.28571 0.000000 0.000000 1.000000 65.00000 44.00000 0.000000 67.62500 -36.12500 0.000000 28.75000 0.000000 -25.28571 0.000000 10.00000 0.000000 1.000000 0.000000 0.000000 1.000000 0.000000 0.000000 0.000000 -10.00000 0.000000 1.000000 0.000000 0.000000 1.000000 0.000000 0.000000 
0.000000 43.52852 0.000000 1.000000 0.000000 0.000000 1.000000 0.000000 0.000000 1.000000 0.000000 0.000000 1.000000 0.000000 0.000000 1.000000 0.000000 0.000000 0.000000 0.000000 1.000000 -65.00000 -44.00000 0.000000 -73.75000 34.75000 0.000000 -26.50000 0.000000 -25.14285 0.000000 0.000000 1.000000 65.00000 44.00000 0.000000 73.75000 -34.75000 0.000000 26.50000 0.000000 -25.14285 0.000000 10.00000 0.000000 1.000000 0.000000 0.000000 1.000000 0.000000 0.000000 0.000000 -10.00000 0.000000 1.000000 0.000000 0.000000 1.000000 0.000000 0.000000 
0.000000 43.52852 0.000000 1.000000 0.000000 0.000000 1.000000 0.000000 0.000000 1.000000 0.000000 0.000000 1.000000 0.000000 0.000000 1.000000 0.000000 0.000000 0.000000 0.000000 1.000000 -65.00000 -44.00000 0.000000 -79.87500 33.37500 0.000000 -24.25000 0.000000 -25.00000 0.000000 0.000000 1.000000 65.00000 44.00000 0.000000 79.87500 -33.37500 0.000000 24.25000 0.000000 -25.00000 0.000000 10.00000 0.000000 1.000000 0.000000 0.000000 1.000000 0.000000 0.000000 0.000000 -10.00000 0.000000 1.000000 0.000000 0.000000 1.000000 0.000000 0.000000 
0.000000 43.52852 0.000000 1.000000 0.000000 0.000000 1.000000 0.000000 0.000000 1.000000 0.000000 0.000000 1.000000 0.000000 0.000000 1.000000 0.000000 0.000000 0.000000 0.000000 1.000000 -65.00000 -44.00000 0.000000 -86.00000 32.00000 0.000000 -22.00000 0.000000 -24.85714 0.000000 0.000000 1.000000 65.00000 44.00000 0.000000 86.00000 -32.00000 0.000000 22.00000 0.000000 -24.85714 0.000000 10.00000 0.000000 1.000000 0.000000 0.000000 1.000000 0.000000 0.000000 0.000000 -10.00000 0.000000 1.000000 0.000000 0.000000 1.000000 0.000000 0.000000 
0.000000 43.52852 0.000000 1.000000 0.000000 0.000000 1.000000 0.000000 0.000000 1.000000 0.000000 0.000000 1.000000 0.000000 0.000000 1.000000 0.000000 0.000000 0.000000 0.000000 1.000000 -65.00000 -44.00000 0.000000 -88.80000 28.35000 0.000000 -17.80000 0.000000 -23.07143 0.000000 0.000000 1.000000 65.00000 44.00000 0.000000 88.80000 -28.35000 0.000000 17.80000 0.000000 -23.07143 0.000000 10.00000 0.000000 1.000000 0.000000 0.000000 1.000000 0.000000 0.000000 0.000000 -10.00000 0.000000 1.000000 0.000000 0.000000 1.000000 0.000000 0.000000 
0.000000 43.52852 0.000000 1.000000 0.000000 0.000000 1.000000 0.000000 0.000000 1.000000 0.000000 0.000000 1.000000 0.000000 0.000000 1.000000 0.000000 0.000000 0.000000 0.000000 1.000000 -65.00000 -44.00000 0.000000 -91.60000 24.70000 0.000000 -13.60000 0.000000 -21.28571 0.000000 0.000000 1.000000 65.00000 44.00000 0.000000 91.60000 -24.70000 0.000000 13.60000 0.000000 -21.28571 0.000000 10.00000 0.000000 1.000000 0.000000 0.000000 1.000000 0.000000 0.000000 0.000000 -10.00000 0.000000 1.000000 0.000000 0.000000 1.000000 0.000000 0.000000 
0.000000 43.52852 0.000000 1.000000 0.000000 0.000000 1.000000 0.000000 0.000000 1.000000 0.000000 0.000000 1.000000 0.000000 0.000000 1.000000 0.000000 0.000000 0.000000 0.000000 1.000000 -65.00000 -44.00000 0.000000 -94.40000 21.05000 0.000000 -9.400000 0.000000 -19.50000 0.000000 0.000000 1.000000 65.00000 44.00000 0.000000 94.40000 -21.05000 0.000000 9.400000 0.000000 -19.50000 0.000000 10.00000 0.000000 1.000000 0.000000 0.000000 1.000000 0.000000 0.000000 0.000000 -10.00000 0.000000 1.000000 0.000000 0.000000 1.000000 0.000000 0.000000 
0.000000 43.52852 0.000000 1.000000 0.000000 0.000000 1.000000 0.000000 0.000000 1.000000 0.000000 0.000000 1.000000 0.000000 0.000000 1.000000 0.000000 0.000000 0.000000 0.000000 1.000000 -65.00000 -44.00000 0.000000 -97.20000 17.40000 0.000000 -5.200000 0.000000 -17.71428 0.000000 0.000000 1.000000 65.00000 44.00000 0.000000 97.20000 -17.40000 0.000000 5.200000 0.000000 -17.71428 0.000000 10.00000 0.000000 1.000000 0.000000 0.000000 1.000000 0.000000 0.000000 0.000000 -10.00000 0.000000 1.000000 0.000000 0.000000 1.000000 0.000000 0.000000 
0.000000 43.52852 0.000000 1.000000 0.000000 0.000000 1.000000 0.000000 0.000000 1.000000 0.000000 0.000000 1.000000 0.000000 0.000000 1.000000 0.000000 0.000000 0.000000 0.000000 1.000000 -65.00000 -44.00000 0.000000 -100.0000 13.75000 0.000000 -1.000000 0.000000 -15.92857 0.000000 0.000000 1.000000 65.00000 44.00000 0.000000 100.0000 -13.75000 0.000000 1.000000 0.000000 -15.92857 0.000000 10.00000 0.000000 1.000000 0.000000 0.000000 1.000000 0.000000 0.000000 0.000000 -10.00000 0.000000 1.000000 0.000000 0.000000 1.000000 0.000000 0.000000 
0.000000 43.52852 0.000000 1.000000 0.000000 0.000000 1.000000 0.000000 0.000000 1.000000 0.000000 0.000000 1.000000 0.000000 0.000000 1.000000 0.000000 0.000000 0.000000 0.000000 1.000000 -65.00000 -44.00000 0.000000 -102.8000 10.10000 0.000000 3.200000 0.000000 -14.14286 0.000000 0.000000 1.000000 65.00000 44.00000 0.000000 102.8000 -10.10000 0.000000 -3.200000 0.000000 -14.14286 0.000000 10.00000 0.000000 1.000000 0.000000 0.000000 1.000000 0.000000 0.000000 0.000000 -10.00000 0.000000 1.000000 0.000000 0.000000 1.000000 0.000000 0.000000 
0.000000 43.52852 0.000000 1.000000 0.000000 0.000000 1.000000 0.000000 0.000000 1.000000 0.000000 0.000000 1.000000 0.000000 0.000000 1.000000 0.000000 0.000000 0.000000 0.000000 1.000000 -65.00000 -44.00000 0.000000 -105.6000 6.450000 0.000000 7.400000 0.000000 -12.35714 0.000000 0.000000 1.000000 65.00000 44.00000 0.000000 105.6000 -6.450000 0.000000 -7.400000 0.000000 -12.35714 0.000000 10.00000 0.000000 1.000000 0.000000 0.000000 1.000000 0.000000 0.000000 0.000000 -10.00000 0.000000 1.000000 0.000000 0.000000 1.000000 0.000000 0.000000 
0.000000 43.52852 0.000000 1.000000 0.000000 0.000000 1.000000 0.000000 0.000000 1.000000 0.000000 0.000000 1.000000 0.000000 0.000000 1.000000 0.000000 0.000000 0.000000 0.000000 1.000000 -65.00000 -44.00000 0.000000 -108.4000 2.800000 0.000000 11.60000 0.000000 -10.57143 0.000000 0.000000 1.000000 65.00000 44.00000 0.000000 108.4000 -2.800000 0.000000 -11.60000 0.000000 -10.57143 0.000000 10.00000 0.000000 1.000000 0.000000 0.000000 1.000000 0.000000 0.000000 0.000000 -10.00000 0.000000 1.000000 0.000000 0.000000 1.000000 0.000000 0.000000 
0.000000 43.52852 0.000000 1.000000 0.000000 0.000000 1.000000 0.000000 0.000000 1.000000 0.000000 0.000000 1.000000 0.000000 0.000000 1.000000 0.000000 0.000000 0.000000 0.000000 1.000000 -65.00000 -44.00000 0.000000 -111.2000 -0.8500000 0.000000 15.80000 0.000000 -8.785714 0.000000 0.000000 1.000000 65.00000 44.00000 0.000000 111.2000 0.8500000 0.000000 -15.80000 0.000000 -8.785714 0.000000 10.00000 0.000000 1.000000 0.000000 0.000000 1.000000 0.000000 0.000000 0.000000 -10.00000 0.000000 1.000000 0.000000 0.000000 1.000000 0.000000 0.000000 
0.000000 43.52852 0.000000 1.000000 0.000000 0.000000 1.000000 0.000000 0.000000 1.000000 0.000000 0.000000 1.000000 0.000000 0.000000 1.000000 0.000000 0.000000 0.000000 0.000000 1.000000 -65.00000 -44.00000 0.000000 -114.0000 -4.500000 0.000000 20.00000 0.000000 -7.000000 0.000000 0.000000 1.000000 65.00000 44.00000 0.000000 114.0000 4.500000 0.000000 -20.00000 0.000000 -7.000000 0.000000 10.00000 0.000000 1.000000 0.000000 0.000000 1.000000 0.000000 0.000000 0.000000 -10.00000 0.000000 1.000000 0.000000 0.000000 1.000000 0.000000 0.000000 
